<mxfile host="app.diagrams.net" agent="Mozilla/5.0 (Windows NT 10.0; Win64; x64) AppleWebKit/537.36 (KHTML, like Gecko) Chrome/133.0.0.0 Safari/537.36" version="26.0.16">
  <diagram name="Page-1" id="w-GSn4rVRWABjTmaKZI6">
    <mxGraphModel grid="1" page="1" gridSize="10" guides="1" tooltips="1" connect="1" arrows="1" fold="1" pageScale="1" pageWidth="827" pageHeight="1169" math="0" shadow="0">
      <root>
        <mxCell id="0" />
        <mxCell id="1" parent="0" />
        <mxCell id="5Ml_fcZyASNygsmbzBKN-1" value="" style="ellipse;whiteSpace=wrap;html=1;" vertex="1" parent="1">
          <mxGeometry x="670" y="770" width="800" height="400" as="geometry" />
        </mxCell>
        <mxCell id="5Ml_fcZyASNygsmbzBKN-2" value="&lt;font style=&quot;font-size: 24px;&quot;&gt;Person with dementia&lt;/font&gt;" style="ellipse;whiteSpace=wrap;html=1;" vertex="1" parent="1">
          <mxGeometry x="740" y="920" width="160" height="100" as="geometry" />
        </mxCell>
        <mxCell id="5Ml_fcZyASNygsmbzBKN-3" style="edgeStyle=orthogonalEdgeStyle;rounded=0;orthogonalLoop=1;jettySize=auto;html=1;exitX=0;exitY=0.5;exitDx=0;exitDy=0;entryX=1;entryY=0.5;entryDx=0;entryDy=0;" edge="1" parent="1" source="5Ml_fcZyASNygsmbzBKN-4" target="5Ml_fcZyASNygsmbzBKN-2">
          <mxGeometry relative="1" as="geometry" />
        </mxCell>
        <mxCell id="5Ml_fcZyASNygsmbzBKN-4" value="&lt;font style=&quot;font-size: 24px;&quot;&gt;Caregiver&lt;/font&gt;" style="ellipse;whiteSpace=wrap;html=1;" vertex="1" parent="1">
          <mxGeometry x="1260" y="920" width="170" height="100" as="geometry" />
        </mxCell>
        <mxCell id="5Ml_fcZyASNygsmbzBKN-5" value="" style="endArrow=classic;html=1;rounded=0;entryX=0.8;entryY=0.8;entryDx=0;entryDy=0;entryPerimeter=0;exitX=0.5;exitY=0;exitDx=0;exitDy=0;" edge="1" parent="1" source="5Ml_fcZyASNygsmbzBKN-2" target="5Ml_fcZyASNygsmbzBKN-6">
          <mxGeometry width="50" height="50" relative="1" as="geometry">
            <mxPoint x="1060" y="1010" as="sourcePoint" />
            <mxPoint x="1110" y="960" as="targetPoint" />
          </mxGeometry>
        </mxCell>
        <mxCell id="5Ml_fcZyASNygsmbzBKN-6" value="&lt;div&gt;&lt;span style=&quot;font-size: 19px; background-color: transparent; color: light-dark(rgb(0, 0, 0), rgb(255, 255, 255));&quot;&gt;- I want to go out for a walk.&lt;/span&gt;&lt;/div&gt;&lt;div&gt;&lt;span style=&quot;background-color: transparent; color: light-dark(rgb(0, 0, 0), rgb(255, 255, 255));&quot;&gt;&lt;font style=&quot;font-size: 19px;&quot;&gt;- What am I supposed to do now?&lt;/font&gt;&lt;/span&gt;&lt;/div&gt;&lt;div&gt;&lt;span style=&quot;background-color: transparent; color: light-dark(rgb(0, 0, 0), rgb(255, 255, 255));&quot;&gt;&lt;font style=&quot;font-size: 19px;&quot;&gt;- I want to do the things I used to.&lt;/font&gt;&lt;/span&gt;&lt;/div&gt;&lt;div&gt;&lt;span style=&quot;background-color: transparent; color: light-dark(rgb(0, 0, 0), rgb(255, 255, 255));&quot;&gt;&lt;font style=&quot;font-size: 19px;&quot;&gt;- I want to go see my neighbor.&lt;/font&gt;&lt;/span&gt;&lt;/div&gt;&lt;div&gt;&lt;span style=&quot;background-color: transparent; color: light-dark(rgb(0, 0, 0), rgb(255, 255, 255));&quot;&gt;&lt;font style=&quot;font-size: 19px;&quot;&gt;- Do I have to drink medicine today?&lt;/font&gt;&lt;/span&gt;&lt;/div&gt;" style="ellipse;shape=cloud;whiteSpace=wrap;html=1;" vertex="1" parent="1">
          <mxGeometry x="410" y="700" width="440" height="240" as="geometry" />
        </mxCell>
        <mxCell id="5Ml_fcZyASNygsmbzBKN-7" value="&lt;font style=&quot;font-size: 19px;&quot;&gt;- I want to take care of him/her&lt;/font&gt;&lt;div&gt;&lt;font style=&quot;font-size: 19px;&quot;&gt;but I also have work to do.&lt;/font&gt;&lt;/div&gt;&lt;div&gt;&lt;font style=&quot;font-size: 19px;&quot;&gt;- How can I keep an eye on him/her when&lt;/font&gt;&lt;/div&gt;&lt;div&gt;&lt;font style=&quot;font-size: 19px;&quot;&gt;&amp;nbsp;I&#39;m&amp;nbsp;&lt;span style=&quot;background-color: initial;&quot;&gt;not at home?&lt;/span&gt;&lt;/font&gt;&lt;/div&gt;&lt;div&gt;&lt;span style=&quot;font-size: 19px; background-color: transparent; color: light-dark(rgb(0, 0, 0), rgb(255, 255, 255));&quot;&gt;- I want him/her to stay away from that area.&lt;/span&gt;&lt;/div&gt;&lt;div&gt;&lt;span style=&quot;font-size: 19px; background-color: transparent; color: light-dark(rgb(0, 0, 0), rgb(255, 255, 255));&quot;&gt;- I want a way to plan my tasks and appointments.&lt;/span&gt;&lt;/div&gt;&lt;div&gt;&lt;span style=&quot;font-size: 19px; background-color: transparent; color: light-dark(rgb(0, 0, 0), rgb(255, 255, 255));&quot;&gt;- Who should I call for help?&lt;/span&gt;&lt;/div&gt;&lt;div&gt;&lt;span style=&quot;font-size: 19px; background-color: transparent; color: light-dark(rgb(0, 0, 0), rgb(255, 255, 255));&quot;&gt;- How do I learn more about dementia?&lt;/span&gt;&lt;/div&gt;" style="ellipse;shape=cloud;whiteSpace=wrap;html=1;" vertex="1" parent="1">
          <mxGeometry x="1241" y="600" width="610" height="330" as="geometry" />
        </mxCell>
        <mxCell id="5Ml_fcZyASNygsmbzBKN-8" value="" style="endArrow=classic;html=1;rounded=0;entryX=0.203;entryY=0.82;entryDx=0;entryDy=0;exitX=0.5;exitY=0;exitDx=0;exitDy=0;entryPerimeter=0;" edge="1" parent="1" source="5Ml_fcZyASNygsmbzBKN-4" target="5Ml_fcZyASNygsmbzBKN-7">
          <mxGeometry width="50" height="50" relative="1" as="geometry">
            <mxPoint x="1220" y="900" as="sourcePoint" />
            <mxPoint x="1300" y="860" as="targetPoint" />
          </mxGeometry>
        </mxCell>
        <mxCell id="5Ml_fcZyASNygsmbzBKN-9" value="&lt;font style=&quot;font-size: 36px;&quot;&gt;Home&lt;/font&gt;" style="text;html=1;align=center;verticalAlign=middle;whiteSpace=wrap;rounded=0;" vertex="1" parent="1">
          <mxGeometry x="1041" y="770" width="90" height="60" as="geometry" />
        </mxCell>
        <mxCell id="5Ml_fcZyASNygsmbzBKN-10" value="&lt;font style=&quot;font-size: 18px;&quot;&gt;- Please stay at home.&lt;/font&gt;&lt;div&gt;&lt;font style=&quot;font-size: 18px;&quot;&gt;- Please stay away from the kitchen area.&lt;/font&gt;&lt;/div&gt;&lt;div&gt;&lt;font style=&quot;font-size: 18px;&quot;&gt;- Don&#39;t forget to take your medicine.&lt;/font&gt;&lt;/div&gt;" style="text;html=1;align=center;verticalAlign=middle;resizable=0;points=[];autosize=1;strokeColor=none;fillColor=none;" vertex="1" parent="1">
          <mxGeometry x="905" y="895" width="350" height="80" as="geometry" />
        </mxCell>
        <mxCell id="52ccPH5B7dslLF1YPJOj-17" value="&lt;font style=&quot;font-size: 18px;&quot;&gt;Do you have any advice&amp;nbsp;&lt;/font&gt;&lt;div&gt;&lt;font style=&quot;font-size: 18px;&quot;&gt;for dementia caretaking?&lt;/font&gt;&lt;/div&gt;" style="text;html=1;align=center;verticalAlign=middle;resizable=0;points=[];autosize=1;strokeColor=none;fillColor=none;" vertex="1" parent="1">
          <mxGeometry x="1060" y="1090" width="220" height="60" as="geometry" />
        </mxCell>
        <mxCell id="52ccPH5B7dslLF1YPJOj-18" value="&lt;div&gt;&lt;span style=&quot;font-size: 19px;&quot;&gt;- I want to learn about other&amp;nbsp;&lt;/span&gt;&lt;/div&gt;&lt;div&gt;&lt;span style=&quot;font-size: 19px;&quot;&gt;caregiver&#39;s experience.&lt;/span&gt;&lt;/div&gt;&lt;span style=&quot;font-size: 19px;&quot;&gt;- I can share my experience with&lt;/span&gt;&lt;div&gt;&lt;span style=&quot;font-size: 19px;&quot;&gt;&amp;nbsp;other caregivers.&lt;/span&gt;&lt;/div&gt;" style="ellipse;shape=cloud;whiteSpace=wrap;html=1;" vertex="1" parent="1">
          <mxGeometry x="1330" y="1205" width="390" height="195" as="geometry" />
        </mxCell>
        <mxCell id="52ccPH5B7dslLF1YPJOj-30" value="&lt;font style=&quot;font-size: 18px;&quot;&gt;Have you seen him/her&amp;nbsp;&lt;/font&gt;&lt;div&gt;&lt;font style=&quot;font-size: 18px;&quot;&gt;wandering around this place?&lt;/font&gt;&lt;/div&gt;" style="text;html=1;align=center;verticalAlign=middle;resizable=0;points=[];autosize=1;strokeColor=none;fillColor=none;rotation=10;" vertex="1" parent="1">
          <mxGeometry x="1480" y="950" width="260" height="60" as="geometry" />
        </mxCell>
        <mxCell id="52ccPH5B7dslLF1YPJOj-32" value="&lt;span style=&quot;font-size: 19px;&quot;&gt;- Have I seen my neighbor wandering around?&lt;/span&gt;&lt;div&gt;&lt;span style=&quot;font-size: 19px;&quot;&gt;- Why don&#39;t they use special gadgets&amp;nbsp;&lt;/span&gt;&lt;/div&gt;&lt;div&gt;&lt;span style=&quot;font-size: 19px;&quot;&gt;to track the person with dementia?&lt;/span&gt;&lt;span style=&quot;font-size: 19px;&quot;&gt;&lt;/span&gt;&lt;/div&gt;&lt;div&gt;&lt;span style=&quot;font-size: 19px;&quot;&gt;- I want to go check in on my neighbor.&lt;/span&gt;&lt;/div&gt;" style="ellipse;shape=cloud;whiteSpace=wrap;html=1;" vertex="1" parent="1">
          <mxGeometry x="1851" y="760" width="500" height="230" as="geometry" />
        </mxCell>
        <mxCell id="52ccPH5B7dslLF1YPJOj-39" value="&lt;font style=&quot;font-size: 18px;&quot;&gt;He has wandered around&amp;nbsp;&lt;/font&gt;&lt;div&gt;&lt;font style=&quot;font-size: 18px;&quot;&gt;this place&amp;nbsp;&lt;/font&gt;&lt;span style=&quot;font-size: 18px; background-color: transparent; color: light-dark(rgb(0, 0, 0), rgb(255, 255, 255));&quot;&gt;for a while&lt;/span&gt;&lt;span style=&quot;font-size: 18px; background-color: transparent; color: light-dark(rgb(0, 0, 0), rgb(255, 255, 255));&quot;&gt;&amp;nbsp;but I don&#39;t&amp;nbsp;&amp;nbsp;&lt;/span&gt;&lt;/div&gt;&lt;div&gt;&lt;span style=&quot;font-size: 18px; background-color: transparent; color: light-dark(rgb(0, 0, 0), rgb(255, 255, 255));&quot;&gt;know where he/she is now.&lt;/span&gt;&lt;/div&gt;" style="text;html=1;align=center;verticalAlign=middle;resizable=0;points=[];autosize=1;strokeColor=none;fillColor=none;rotation=10;" vertex="1" parent="1">
          <mxGeometry x="1430" y="1050" width="280" height="80" as="geometry" />
        </mxCell>
        <mxCell id="tcL5Ks99tz0ZEiGnuhq_-3" value="" style="group" vertex="1" connectable="0" parent="1">
          <mxGeometry x="810" y="1190" width="530" height="280" as="geometry" />
        </mxCell>
        <mxCell id="52ccPH5B7dslLF1YPJOj-6" value="" style="ellipse;whiteSpace=wrap;html=1;" vertex="1" parent="tcL5Ks99tz0ZEiGnuhq_-3">
          <mxGeometry width="530" height="280" as="geometry" />
        </mxCell>
        <mxCell id="52ccPH5B7dslLF1YPJOj-12" value="&lt;font style=&quot;font-size: 27px;&quot;&gt;Dementia caregivers&#39; community&lt;/font&gt;" style="text;html=1;align=center;verticalAlign=middle;whiteSpace=wrap;rounded=0;" vertex="1" parent="tcL5Ks99tz0ZEiGnuhq_-3">
          <mxGeometry x="50" y="70" width="260" height="60" as="geometry" />
        </mxCell>
        <mxCell id="tcL5Ks99tz0ZEiGnuhq_-1" value="" style="group" vertex="1" connectable="0" parent="tcL5Ks99tz0ZEiGnuhq_-3">
          <mxGeometry x="210" y="130" width="270" height="120" as="geometry" />
        </mxCell>
        <mxCell id="52ccPH5B7dslLF1YPJOj-9" value="&lt;font style=&quot;font-size: 24px;&quot;&gt;Other caregivers&lt;/font&gt;" style="ellipse;whiteSpace=wrap;html=1;" vertex="1" parent="tcL5Ks99tz0ZEiGnuhq_-1">
          <mxGeometry y="10" width="260" height="110" as="geometry" />
        </mxCell>
        <mxCell id="52ccPH5B7dslLF1YPJOj-14" value="&lt;font style=&quot;font-size: 24px;&quot;&gt;Other caregivers&lt;/font&gt;" style="ellipse;whiteSpace=wrap;html=1;" vertex="1" parent="tcL5Ks99tz0ZEiGnuhq_-1">
          <mxGeometry x="10" width="260" height="110" as="geometry" />
        </mxCell>
        <mxCell id="52ccPH5B7dslLF1YPJOj-15" style="rounded=0;orthogonalLoop=1;jettySize=auto;html=1;exitX=0.5;exitY=1;exitDx=0;exitDy=0;entryX=0.5;entryY=0;entryDx=0;entryDy=0;startArrow=classic;startFill=1;" edge="1" parent="1" source="5Ml_fcZyASNygsmbzBKN-4" target="52ccPH5B7dslLF1YPJOj-14">
          <mxGeometry relative="1" as="geometry">
            <mxPoint x="1480" y="1320" as="targetPoint" />
          </mxGeometry>
        </mxCell>
        <mxCell id="52ccPH5B7dslLF1YPJOj-19" style="rounded=0;orthogonalLoop=1;jettySize=auto;html=1;exitX=1;exitY=0.5;exitDx=0;exitDy=0;entryX=0.13;entryY=0.77;entryDx=0;entryDy=0;entryPerimeter=0;" edge="1" parent="1" source="52ccPH5B7dslLF1YPJOj-14" target="52ccPH5B7dslLF1YPJOj-18">
          <mxGeometry relative="1" as="geometry" />
        </mxCell>
        <mxCell id="tcL5Ks99tz0ZEiGnuhq_-4" value="" style="group" connectable="0" vertex="1" parent="1">
          <mxGeometry x="1718" y="960" width="350" height="220" as="geometry" />
        </mxCell>
        <mxCell id="52ccPH5B7dslLF1YPJOj-25" value="" style="ellipse;whiteSpace=wrap;html=1;" vertex="1" parent="tcL5Ks99tz0ZEiGnuhq_-4">
          <mxGeometry width="350" height="220" as="geometry" />
        </mxCell>
        <mxCell id="52ccPH5B7dslLF1YPJOj-27" value="&lt;font style=&quot;font-size: 27px;&quot;&gt;Neighborhood&lt;/font&gt;" style="text;html=1;align=center;verticalAlign=middle;whiteSpace=wrap;rounded=0;" vertex="1" parent="tcL5Ks99tz0ZEiGnuhq_-4">
          <mxGeometry x="30" y="15" width="260" height="60" as="geometry" />
        </mxCell>
        <mxCell id="tcL5Ks99tz0ZEiGnuhq_-6" value="" style="group" connectable="0" vertex="1" parent="tcL5Ks99tz0ZEiGnuhq_-4">
          <mxGeometry x="50" y="75" width="270" height="120" as="geometry" />
        </mxCell>
        <mxCell id="tcL5Ks99tz0ZEiGnuhq_-5" value="&lt;span style=&quot;font-size: 24px;&quot;&gt;Neighbors&lt;/span&gt;" style="ellipse;whiteSpace=wrap;html=1;" vertex="1" parent="tcL5Ks99tz0ZEiGnuhq_-6">
          <mxGeometry x="10" y="10" width="260" height="110" as="geometry" />
        </mxCell>
        <mxCell id="52ccPH5B7dslLF1YPJOj-28" value="&lt;span style=&quot;font-size: 24px;&quot;&gt;Neighbors&lt;/span&gt;" style="ellipse;whiteSpace=wrap;html=1;" vertex="1" parent="tcL5Ks99tz0ZEiGnuhq_-6">
          <mxGeometry width="260" height="110" as="geometry" />
        </mxCell>
        <mxCell id="52ccPH5B7dslLF1YPJOj-29" style="rounded=0;orthogonalLoop=1;jettySize=auto;html=1;exitX=1;exitY=0.5;exitDx=0;exitDy=0;entryX=0.131;entryY=0.133;entryDx=0;entryDy=0;entryPerimeter=0;" edge="1" parent="1" source="5Ml_fcZyASNygsmbzBKN-4" target="52ccPH5B7dslLF1YPJOj-28">
          <mxGeometry relative="1" as="geometry">
            <mxPoint x="2029.9999999999945" y="1094.9999999999998" as="targetPoint" />
          </mxGeometry>
        </mxCell>
        <mxCell id="52ccPH5B7dslLF1YPJOj-31" style="rounded=0;orthogonalLoop=1;jettySize=auto;html=1;exitX=0;exitY=0.5;exitDx=0;exitDy=0;entryX=1;entryY=1;entryDx=0;entryDy=0;" edge="1" parent="1" source="52ccPH5B7dslLF1YPJOj-28" target="5Ml_fcZyASNygsmbzBKN-4">
          <mxGeometry relative="1" as="geometry">
            <mxPoint x="2068.07611844574" y="1133.8908729652635" as="sourcePoint" />
          </mxGeometry>
        </mxCell>
        <mxCell id="52ccPH5B7dslLF1YPJOj-33" style="rounded=0;orthogonalLoop=1;jettySize=auto;html=1;exitX=1;exitY=0;exitDx=0;exitDy=0;" edge="1" parent="1" source="52ccPH5B7dslLF1YPJOj-28">
          <mxGeometry relative="1" as="geometry">
            <mxPoint x="2040" y="960" as="targetPoint" />
          </mxGeometry>
        </mxCell>
      </root>
    </mxGraphModel>
  </diagram>
</mxfile>
